<svg id="Layer_1" data-name="Layer 1" xmlns="http://www.w3.org/2000/svg" viewBox="0 0 308.47 297.88"><defs><style>.cls-1{fill:#40b97d;}.cls-2,.cls-5{fill:gray;}.cls-2{opacity:0.3;}.cls-3{fill:#fff;}.cls-4{fill:none;}.cls-5{opacity:0.37;}.cls-6{fill:#424242;}</style></defs><title>dentobit</title><rect class="cls-1" x="31.39" y="23.19" width="253.18" height="253.18" rx="46.35"/><path class="cls-2" d="M214.82,75.41l-10-5.09s-4.42,30.15-4.42,33.68-1.76,49.41-1.76,49.41l-15.15,75.86-14.85-43.46-40,9.37-4.5,35.67,35.79,45.81,66-.63c3.2.54,26.35,3.89,43.82-12.7a50.32,50.32,0,0,0,14.78-29.09v-71Z"/><path class="cls-3" d="M228,93.72C224.67,76.38,216.8,68.8,199.36,66a32.27,32.27,0,0,0-6.76-.38c-6.89.33-11.7,2.79-14.94,4.31-10.45,4.88-21.93,10.25-32.95,7.48-1.07-.27-.05-.09-9.18-4C124,68.47,118.15,66,114.81,66c-9.54,0-16.51,6.58-17.78,7.79-5.77,5.5-8,11.81-9.06,18a93,93,0,0,0-1.8,16.35c.06,16.86,7.73,33.22,11.71,49.27,3,11.89,1.53,23.6,5.87,35.2,4.84,12.93,10.1,25.71,18.83,36.62,5.62,7,12.34,6.11,16.29-2,2.2-4.51,3.11-9.44,4.24-14.3,1.46-6.3,2.51-12.76,6.08-18.34,5.08-7.93,15.17-8.38,21.05-1a27.88,27.88,0,0,1,4,7.42c2.19,5.59,3.34,11.47,5,17.22,1.25,4.46,2.32,9.06,5.43,12.73,3.38,4,7,4.13,10.59.37a48.63,48.63,0,0,0,8.31-13C211.22,202,210,183.88,214.35,167c4.47-17.22,14.48-33.19,15.43-50.62C229.69,107.59,229.3,100.61,228,93.72Z"/><path class="cls-4" d="M244.42,183.81V139.57H195.13a40.09,40.09,0,0,1-80.17,0H64.6v44.24Z"/><path class="cls-5" d="M157.16,77.56a33.82,33.82,0,0,1-13.62,2.74,34.48,34.48,0,0,1-18.95-6,65.84,65.84,0,0,0,6.83,2.07,67.45,67.45,0,0,0,12,1.75,65.25,65.25,0,0,0,7,0Z"/><path class="cls-6" d="M127.24,144.35a32.47,32.47,0,0,0,63.52-2.11,64,64,0,0,1-63.52,2.11Z"/><circle class="cls-6" cx="138.41" cy="116.29" r="6.17"/><circle class="cls-6" cx="180.59" cy="116.29" r="6.17"/></svg>