<svg xmlns="http://www.w3.org/2000/svg" width="52.833" height="72.93" viewBox="0 0 52.833 72.93"><g transform="translate(0 0)"><path d="M25.724,3.368a25.928,25.928,0,0,1-4.519-1.592A21.59,21.59,0,0,0,18.7.874h0C18.455.7,18.147.747,17.882.646h0A16.246,16.246,0,0,0,14.9.133.442.442,0,0,0,14.79.109,3.5,3.5,0,0,0,13.777.022h0C13.164.016,12.552,0,11.94,0A13.2,13.2,0,0,0,6.389,1.133,9.061,9.061,0,0,0,3.37,3.32,10.933,10.933,0,0,0,1.258,6.834,16.47,16.47,0,0,0,.345,10.4a43.994,43.994,0,0,0-.309,4.865c-.054,1.823-.055,3.646.035,5.468.048.972.072,1.946.156,2.915.154,1.751.346,3.5.587,5.239.281,2,.641,3.975,1.046,5.954.259,1.254.56,2.5.852,3.746.092.394.216.778.326,1.173.125-.041.129-.122.146-.188.531-2.105,1.209-4.166,1.923-6.216a84,84,0,0,1,3.265-8.014c.623-1.328,1.3-2.635,1.995-3.924a62.379,62.379,0,0,1,4.667-7.35,51.521,51.521,0,0,1,4-4.768,37.8,37.8,0,0,1,3.265-3.085,35.631,35.631,0,0,1,3.467-2.605c.059-.038.159-.058.155-.136C25.912,3.362,25.8,3.386,25.724,3.368Z" transform="translate(0.001 0.002)" fill="#5680d5"/><path d="M335.37,502.91c-.1-1.359-.252-2.718-.454-4.069a.41.41,0,0,0-.215-.34,20.3,20.3,0,0,0-3.382-1.743,14.785,14.785,0,0,0-3.581-.842,20.884,20.884,0,0,0-3.91,0,21.89,21.89,0,0,0-4.782,1.012,26.728,26.728,0,0,0-4.5,1.921,10.413,10.413,0,0,0-1.3.765c.173.086.309.153.447.219s.283.126.421.2a12.188,12.188,0,0,1,4.234,3.912,25.963,25.963,0,0,1,3.347,6.985,39.121,39.121,0,0,1,1.35,5.472c.18,1.029.332,2.061.426,3.1a9.347,9.347,0,0,0,.3,1.736h0a1.967,1.967,0,0,0,.173.726c0,.007.008.017.011.026a6.8,6.8,0,0,0,1,2.236,4.576,4.576,0,0,0,.679.809h0c.139.1.274.216.418.312a3.052,3.052,0,0,0,2.206.525,4.56,4.56,0,0,0,2.792-1.707,11.208,11.208,0,0,0,1.866-3.576,39.514,39.514,0,0,0,2.247-9.151c.124-1.07.22-2.14.272-3.216A43.729,43.729,0,0,0,335.37,502.91Z" transform="translate(-286.18 -452.976)" fill="#5680d5"/><path d="M160.968,527.884a.973.973,0,0,0-.9.368c-.32.353-.664.684-1.008,1.014a1.02,1.02,0,0,0-.309,1.01c.075.346-.173.47-.387.626s-.378.064-.563-.1c-.519-.47-.951-1.026-1.508-1.456a.573.573,0,0,1-.134-.778.62.62,0,0,0-.1-.714.492.492,0,0,1,.048-.725q.951-.962,1.912-1.912a.536.536,0,0,1,.684-.055.874.874,0,0,0,.847.086.559.559,0,0,1,.652.154c.518.525,1.037,1.047,1.561,1.556a.34.34,0,0,1,.047.493C161.612,527.772,161.375,527.986,160.968,527.884Z" transform="translate(-142.443 -479.686)" fill="#43d9e6"/><path d="M89.305,24.194a20.1,20.1,0,0,0-.548-3.9,13.352,13.352,0,0,0-1.42-3.53,9.525,9.525,0,0,0-2.628-2.882,9.755,9.755,0,0,0-2.827-1.373,11.667,11.667,0,0,0-3.164-.572,5.436,5.436,0,0,0-1.426-.048,1.845,1.845,0,0,0-.824.054h-.007a4.62,4.62,0,0,0-1.047.086.229.229,0,0,0-.1.028h-.005a1.8,1.8,0,0,0-.788.12h0a12.6,12.6,0,0,0-1.74.357,21.981,21.981,0,0,0-2.93.917,34.015,34.015,0,0,0-5.5,2.713,35.4,35.4,0,0,0-4.8,3.543,34.929,34.929,0,0,0-2.524,2.42,48.307,48.307,0,0,0-3.558,4.206c-.847,1.142-1.663,2.3-2.42,3.5-.675,1.068-1.314,2.154-1.938,3.253-.77,1.354-1.456,2.75-2.128,4.153-.753,1.574-1.425,3.182-2.065,4.8-.238.6-.462,1.2-.681,1.8-.3.822-.6,1.642-.875,2.471-.242.734-.432,1.486-.671,2.219-.353,1.078-.634,2.177-.922,3.273-.145.553-.292,1.105-.4,1.668-.173.864-.394,1.724-.55,2.593-.173.951-.3,1.9-.42,2.863-.146,1.2-.27,2.4-.3,3.6a38.343,38.343,0,0,0,.324,6.481c.157,1.106.346,2.2.586,3.292A36.009,36.009,0,0,0,42.6,77.543a12.8,12.8,0,0,0,1.418,2.946,5.221,5.221,0,0,0,2.4,1.977,3.131,3.131,0,0,0,3.76-1.091,7.673,7.673,0,0,0,1.469-3.92c.143-1.064.239-2.135.438-3.19a30.341,30.341,0,0,1,.989-3.815,28.156,28.156,0,0,1,1.246-3.1,28.455,28.455,0,0,1,2.395-4.17,28.871,28.871,0,0,1,4.343-4.966,25.591,25.591,0,0,1,2.7-2.16,24.921,24.921,0,0,1,3.1-1.841c.62-.305,1.242-.6,1.885-.856a25.876,25.876,0,0,1,3.173-1.007,19.875,19.875,0,0,1,3.875-.552,19.25,19.25,0,0,1,3.615.169,20.154,20.154,0,0,1,3.68.894,15.953,15.953,0,0,1,2.1.893c.3.153.388.114.488-.219q.192-.633.36-1.275c.326-1.242.659-2.483.964-3.731.274-1.112.535-2.229.766-3.35.2-.973.327-1.961.527-2.938.247-1.2.382-2.42.559-3.634s.287-2.437.375-3.66c.1-1.365.168-2.735.2-4.1C89.467,28.627,89.442,26.409,89.305,24.194ZM77.441,11.937l-.013.006v-.006Z" transform="translate(-36.609 -10.84)" fill="#40b97d"/><path d="M469.53,58.523s9.444-3.083,8.541,13.878C478.071,72.4,477.823,60.733,469.53,58.523Z" transform="translate(-428.955 -53.265)" fill="#fff"/></g></svg>